<?xml version="1.0" standalone="no"?>
<!DOCTYPE svg PUBLIC "-//W3C//DTD SVG 20010904//EN"
 "http://www.w3.org/TR/2001/REC-SVG-20010904/DTD/svg10.dtd">
<svg version="1.0" xmlns="http://www.w3.org/2000/svg"
 width="260.000000pt" height="260.000000pt" viewBox="0 0 260.000000 260.000000"
 preserveAspectRatio="xMidYMid meet">
<metadata>
Created by potrace 1.14, written by Peter Selinger 2001-2017
</metadata>
<g transform="translate(0.000000,260.000000) scale(0.100000,-0.100000)"
fill="#000000" stroke="none">
<path d="M10 1785 c-10 -12 -9 -20 5 -41 15 -23 18 -24 38 -12 29 19 80 8 113
-23 38 -36 53 -108 63 -299 8 -169 7 -176 -13 -198 -23 -26 -35 -137 -18 -168
9 -17 12 -16 23 11 25 57 61 95 116 122 49 23 67 27 147 26 77 -1 199 -20 316
-49 l25 -7 -20 21 c-24 25 -153 68 -249 83 -39 7 -112 9 -163 6 -79 -5 -92 -3
-98 11 -3 10 -13 91 -21 181 -13 145 -18 171 -45 227 -23 50 -39 69 -72 88
-55 31 -129 42 -147 21z"/>
<path d="M540 1643 c-29 -3 -39 -7 -30 -13 11 -7 11 -16 0 -54 -12 -45 -14
-46 -54 -48 l-41 -1 38 -4 c20 -2 37 -9 37 -15 0 -7 4 -7 14 1 7 6 28 9 47 5
61 -10 61 -11 44 -44 -15 -29 -18 -31 -76 -29 -80 3 -86 -8 -10 -17 53 -6 61
-9 62 -28 1 -18 2 -19 6 -2 4 15 11 17 46 12 23 -4 47 -13 52 -20 6 -7 16 -11
24 -8 16 5 111 -38 111 -50 0 -5 -5 -19 -11 -31 -19 -38 98 96 131 149 44 73
49 112 16 151 -16 19 -42 35 -70 42 -42 10 -235 12 -336 4z m130 -24 c0 -5
-10 -28 -22 -49 -22 -38 -25 -40 -75 -40 l-52 0 16 38 c8 20 20 43 25 50 13
15 108 16 108 1z m130 -11 c0 -6 -12 -30 -27 -54 -28 -43 -28 -44 -73 -38 -25
4 -47 8 -48 10 -6 5 57 92 69 96 20 7 79 -4 79 -14z m96 -43 c13 -20 15 -33 7
-58 -8 -28 -13 -32 -42 -29 -18 1 -42 7 -52 13 -18 9 -18 12 17 54 20 25 40
45 45 45 5 0 16 -11 25 -25z m-183 -85 c11 -9 -13 -60 -28 -60 -7 0 -27 3 -44
6 -33 7 -38 22 -20 55 8 16 17 19 47 13 20 -3 41 -10 45 -14z m101 -22 c59
-16 63 -23 41 -63 -10 -20 -21 -34 -24 -33 -3 2 -30 12 -58 23 -57 21 -61 29
-37 63 18 25 22 26 78 10z"/>
<path d="M1058 1514 c-15 -8 -32 -23 -38 -34 -13 -24 -13 -86 0 -111 16 -29
67 -51 114 -48 34 2 46 -2 68 -24 15 -15 34 -27 42 -27 8 0 21 -3 30 -6 9 -3
16 -1 16 5 0 6 -6 11 -14 11 -27 0 -56 50 -56 96 0 39 -2 44 -23 44 -20 0 -23
-4 -19 -28 7 -49 -41 -77 -88 -52 -10 5 -24 26 -30 45 -30 90 48 168 118 119
28 -20 45 -8 18 12 -26 18 -103 17 -138 -2z"/>
<path d="M1275 1425 l0 -105 28 0 27 0 0 95 c0 86 2 95 19 95 43 0 52 -63 10
-78 -17 -7 -15 -12 21 -70 55 -86 122 -123 170 -92 12 8 10 10 -9 10 -32 0
-78 37 -119 93 -32 45 -32 46 -12 57 16 9 20 19 18 43 -4 40 -35 57 -103 57
l-50 0 0 -105z"/>
<path d="M1578 1519 c-10 -5 -18 -15 -18 -20 0 -6 7 -3 16 5 41 42 94 1 94
-73 0 -77 -45 -118 -105 -95 -38 15 -57 101 -35 158 13 35 -3 33 -34 -5 -36
-42 -35 -89 3 -131 24 -27 36 -32 89 -36 60 -4 63 -3 97 31 54 54 48 130 -15
162 -33 17 -67 19 -92 4z"/>
<path d="M1793 1510 c-64 -39 -72 -103 -19 -156 30 -30 40 -34 84 -34 36 0 56
6 73 21 l24 21 -25 -16 c-47 -30 -103 -19 -125 25 -23 44 -19 96 10 124 30 30
64 32 99 4 25 -20 26 -20 26 -1 0 36 -95 44 -147 12z"/>
<path d="M1983 1520 c-13 -5 -23 -17 -23 -27 1 -17 1 -17 11 0 5 9 21 17 35
17 l25 0 -3 -95 -3 -95 27 0 27 0 3 105 3 105 -40 -1 c-22 0 -50 -4 -62 -9z"/>
<path d="M2135 1425 l0 -105 76 0 c61 0 78 3 83 16 9 23 8 24 -24 8 -16 -9
-42 -14 -57 -12 -25 3 -28 7 -28 43 0 40 0 40 38 39 23 -1 37 3 37 11 0 8 -14
12 -37 11 -37 -1 -38 0 -41 38 -3 37 -2 38 22 34 18 -4 26 -1 26 8 0 10 -14
14 -47 14 l-48 0 0 -105z"/>
<path d="M2344 1505 c-22 -33 -12 -56 42 -93 40 -29 45 -36 42 -65 -3 -29 -6
-32 -40 -35 -33 -3 -40 1 -59 30 -17 28 -19 29 -14 8 10 -36 27 -50 66 -56 48
-8 89 25 89 72 0 37 -17 60 -69 90 -53 31 -31 81 25 56 19 -10 24 -9 24 3 0
11 -12 15 -45 15 -36 0 -48 -5 -61 -25z"/>
<path d="M425 1125 c-5 -2 -32 -6 -60 -10 -46 -6 -48 -8 -30 -22 15 -11 34
-13 75 -8 30 4 106 7 169 7 66 -1 110 3 105 8 -19 19 -220 38 -259 25z"/>
<path d="M1217 1123 c-4 -3 -7 -29 -7 -58 0 -61 -16 -88 -51 -83 -22 3 -24 8
-27 61 -2 42 -7 57 -17 57 -11 0 -15 -13 -15 -53 0 -61 12 -77 55 -77 50 0 59
13 65 90 3 38 5 70 4 70 0 0 -4 -3 -7 -7z"/>
<path d="M1655 1100 c15 -16 17 -30 11 -75 -4 -35 -2 -55 4 -55 5 0 9 3 9 8
-1 4 -1 21 0 37 2 29 2 29 17 10 8 -11 19 -27 24 -35 8 -12 14 -10 34 15 23
28 25 29 31 10 16 -49 25 -65 45 -75 21 -11 21 -11 7 17 -8 16 -18 51 -22 78
-10 70 -14 72 -42 26 -27 -46 -39 -51 -48 -21 -10 30 -55 80 -72 80 -14 0 -14
-3 2 -20z"/>
<path d="M1870 1112 c0 -4 4 -13 9 -21 6 -9 0 -33 -15 -67 -13 -30 -19 -54
-14 -54 6 0 10 7 10 15 0 9 7 18 15 21 8 4 12 10 9 15 -3 5 0 17 5 26 10 17
10 17 12 1 5 -60 50 -118 90 -118 8 0 7 5 -4 13 -9 6 -32 46 -51 88 -19 42
-41 79 -50 82 -9 4 -16 3 -16 -1z"/>
<path d="M1320 1103 c0 -5 5 -14 11 -20 9 -9 8 -18 -5 -37 -14 -22 -14 -26 -2
-26 8 0 22 10 30 22 13 19 14 25 3 42 -15 22 -37 33 -37 19z"/>
<path d="M987 1093 c-16 -16 -4 -44 28 -69 39 -30 40 -43 4 -61 -19 -10 -20
-13 -6 -13 64 0 76 55 22 96 -21 15 -34 33 -31 41 6 14 -6 18 -17 6z"/>
<path d="M1260 1035 c0 -55 3 -65 18 -65 15 0 17 8 14 65 -3 48 -7 65 -18 65
-11 0 -14 -16 -14 -65z"/>
<path d="M1395 1035 l0 -65 53 0 c28 0 52 3 52 8 0 4 -18 6 -40 4 -37 -4 -40
-2 -40 21 0 20 6 27 28 30 l27 4 -27 2 c-23 1 -28 6 -28 25 0 18 7 26 23 29
15 3 10 5 -13 6 l-35 1 0 -65z"/>
<path d="M1528 1035 c-3 -57 -1 -65 15 -65 14 0 17 10 17 65 0 49 -3 65 -14
65 -11 0 -15 -17 -18 -65z"/>
<path d="M1592 1080 c11 -18 10 -23 -5 -35 -18 -13 -18 -16 12 -58 32 -46 48
-57 84 -57 21 1 20 2 -4 15 -14 8 -38 29 -52 48 -24 32 -25 35 -9 51 19 19 7
49 -22 54 -15 3 -16 1 -4 -18z"/>
<path d="M1990 1035 c0 -55 3 -65 18 -65 14 0 17 10 17 65 0 55 -3 65 -17 65
-15 0 -18 -10 -18 -65z"/>
<path d="M2048 1094 c15 -7 16 -51 0 -56 -8 -3 -5 -16 11 -41 28 -45 57 -67
91 -67 25 0 25 0 -6 19 -42 25 -77 74 -63 88 20 20 6 58 -21 60 -14 1 -19 0
-12 -3z"/>
<path d="M2130 1035 c0 -55 3 -65 18 -65 15 0 17 8 14 65 -3 48 -7 65 -18 65
-11 0 -14 -16 -14 -65z"/>
<path d="M2192 1064 l-24 -36 23 -27 c38 -43 73 -71 91 -71 11 0 -2 19 -38 56
l-54 56 21 29 c11 16 17 29 12 29 -4 0 -18 -16 -31 -36z"/>
<path d="M2278 1035 l-3 -65 53 0 c28 0 52 4 52 8 0 4 -16 6 -35 4 -32 -4 -35
-2 -35 23 0 24 3 27 25 23 16 -3 25 -1 25 7 0 8 -9 10 -25 7 -21 -4 -25 -1
-25 21 0 16 7 27 18 30 9 3 3 5 -15 6 l-31 1 -4 -65z"/>
<path d="M2440 1035 c0 -55 3 -65 18 -65 14 0 17 10 17 65 0 55 -3 65 -17 65
-15 0 -18 -10 -18 -65z"/>
<path d="M246 1039 c-31 -37 -33 -73 -5 -93 55 -38 154 65 107 112 -24 24 -74
14 -102 -19z m74 -31 c0 -27 -27 -58 -50 -58 -45 0 -51 67 -8 87 30 14 58 -1
58 -29z"/>
<path d="M674 1055 c-56 -39 -51 -115 7 -115 58 0 112 83 77 118 -16 16 -59
15 -84 -3z m64 -43 c4 -25 -30 -62 -58 -62 -26 0 -44 34 -30 60 23 43 82 44
88 2z"/>
</g>
</svg>
